<svg width="162" height="80" viewBox="0 0 162 80" fill="none" xmlns="http://www.w3.org/2000/svg">
<path d="M43.184 39.977C46.3384 33.9552 48.8169 27.7075 50.319 22.4384C49.7182 22.3631 49.1925 22.2878 48.5916 22.2878C47.1646 27.2559 44.8363 33.2777 41.6819 39.2243C41.081 40.3534 40.4802 41.4072 39.8793 42.4611C40.7055 42.16 41.5317 41.8589 42.3578 41.5578C42.6582 41.0309 42.9587 40.504 43.184 39.977Z" fill="white"/>
<path d="M21.027 28.2346C21.4026 27.5571 21.7781 26.8044 22.1536 26.127C21.3275 26.3528 20.5013 26.6539 19.7502 26.8797C19.6751 27.0302 19.6 27.1808 19.5249 27.3313C15.9949 33.9554 13.5165 40.4288 12.0143 46.2249C12.6152 46.3001 13.1409 46.3001 13.8169 46.3754C15.1688 41.031 17.5722 34.8586 21.027 28.2346Z" fill="white"/>
<path d="M17.6475 36.5142C17.4222 37.1163 17.1217 37.7185 16.8964 38.3207C19.3749 40.5789 22.5293 42.6866 26.1344 44.4178C29.8146 46.2244 33.5699 47.4288 37.175 48.0309C37.5505 47.504 37.926 46.9018 38.2264 46.3749C34.6214 45.9233 30.7159 44.7189 26.9606 42.8371C23.2804 41.1058 20.126 38.8476 17.6475 36.5142Z" fill="white"/>
<path d="M49.3419 32.9013C46.4879 29.0623 41.9065 25.5245 36.574 22.9652C31.3917 20.4059 25.9089 19.051 21.2524 19.051C16.0701 19.051 12.3899 20.707 10.8878 23.7932C9.01015 27.5569 10.9629 32.6002 15.4692 37.1918C15.6946 36.5897 15.995 35.9122 16.2203 35.31C12.6903 31.4711 11.038 27.4816 12.465 24.6212C13.5916 22.2125 16.8211 20.8576 21.1773 20.8576C25.6085 20.8576 30.7157 22.2125 35.7478 24.6212C40.855 27.1052 45.136 30.4925 47.8398 34.0304C50.3934 37.4177 51.2196 40.5791 50.093 42.9126C48.9664 45.3213 45.7368 46.6763 41.3807 46.6763C40.9301 46.6763 40.5546 46.6763 40.1039 46.601C39.7284 47.2032 39.3529 47.8054 38.9773 48.3323C39.8035 48.4075 40.5546 48.4828 41.3807 48.4828C46.563 48.4828 50.2432 46.8268 51.7453 43.7406C53.2474 40.6544 52.3462 36.8908 49.3419 32.9013Z" fill="white"/>
<path d="M38.4519 44.7198C31.2418 56.4624 22.5295 64.8177 17.0468 64.8177C16.2957 64.8177 15.6949 64.6671 15.0941 64.366C12.0898 62.7853 11.3388 56.7635 13.2915 48.1823C12.6907 48.1823 12.0898 48.1071 11.5641 48.0318C9.61134 56.9893 10.4375 63.7639 14.343 65.8715C15.1692 66.3231 16.0704 66.549 17.0468 66.549C23.581 66.549 33.0443 57.4409 40.9304 43.967C40.1794 44.1929 39.3532 44.494 38.4519 44.7198Z" fill="white"/>
<path d="M33.6436 43.5902C32.2166 43.8913 30.7896 44.1924 29.4377 44.4935C30.5643 44.9452 31.6909 45.3215 32.8174 45.6979C33.2681 45.6226 33.6436 45.5473 34.0942 45.3968C40.0276 44.0419 45.6605 42.0848 50.242 39.8266C50.1669 39.2244 49.9415 38.6975 49.7162 38.02C45.1348 40.2782 39.5769 42.2353 33.6436 43.5902Z" fill="white"/>
<path d="M11.788 27.9335C11.8631 28.5357 12.0133 29.1378 12.2386 29.74C16.6698 27.4818 22.3779 25.2989 29.0623 23.7935C29.8884 23.5676 30.7146 23.4171 31.5408 23.2665C30.3391 22.8149 29.2125 22.4385 28.0859 22.1375C21.8521 23.6429 16.2943 25.6753 11.788 27.9335Z" fill="white"/>
<path d="M26.058 45.0199C22.9036 45.4715 19.8994 45.6973 17.0453 45.6973C8.5584 45.6973 2.77526 43.7403 2.0242 40.5035C1.42335 37.7937 4.50269 34.1053 10.5111 30.6427C10.2858 30.0405 10.1356 29.4384 9.9854 28.8362C3.22588 32.6751 -0.679609 37.0409 0.22166 40.8799C1.19803 45.0952 7.28159 47.5039 16.9702 47.5039C20.7255 47.5039 24.8563 47.1275 29.0623 46.3748C28.161 45.9232 27.1095 45.4715 26.058 45.0199Z" fill="white"/>
<path d="M62.4092 26.5032C61.4329 22.2879 55.3493 19.8792 45.6606 19.8792C41.3796 19.8792 36.5729 20.4061 31.691 21.3093C32.7425 21.6857 33.7939 22.1373 34.9205 22.589C38.6758 21.9868 42.2809 21.6857 45.6606 21.6857C54.1476 21.6857 59.9307 23.6428 60.6818 26.8796C61.2826 29.3636 58.8042 32.525 53.9974 35.6112C53.1712 36.1382 52.27 36.6651 51.3687 37.1167C51.594 37.7189 51.8193 38.3211 51.9695 38.848C53.021 38.2458 54.0725 37.7189 54.9738 37.0414C60.4565 33.5789 63.1603 29.8152 62.4092 26.5032Z" fill="white"/>
<path d="M23.5044 23.8685C24.1804 22.8147 24.7812 21.7608 25.4572 20.707C24.7812 20.6317 24.1804 20.4812 23.5044 20.4812C22.6783 21.8361 21.8521 23.191 21.0259 24.6212C21.8521 24.3201 22.6783 24.0943 23.5044 23.8685Z" fill="white"/>
<path d="M26.583 19.0511C33.2674 9.26556 40.7029 2.56625 45.5848 2.56625C46.3358 2.56625 46.9366 2.71679 47.5375 3.01788C50.6919 4.67389 51.3679 11.4485 48.9645 20.8576C49.5654 20.9329 50.1662 21.0082 50.6919 21.0834C53.1704 11.2979 52.4945 3.77061 48.3637 1.51242C47.5375 1.06078 46.6362 0.834961 45.5848 0.834961C39.8767 0.834961 31.8404 7.83537 24.6302 18.75C25.2311 18.8252 25.9071 18.9005 26.583 19.0511Z" fill="white"/>
<path fill-rule="evenodd" clip-rule="evenodd" d="M35.9707 33.8795C35.9707 36.6646 33.7175 38.9228 30.9386 38.9228C28.1597 38.9228 25.9065 36.6646 25.9065 33.8795C25.9065 31.0944 28.1597 28.8362 30.9386 28.8362C33.7175 28.8362 35.9707 31.0944 35.9707 33.8795Z" fill="white"/>
<path d="M106.271 44.8699V38.547H99.9625V44.8699H96.733V29.439H99.9625V35.6866H106.271V29.439H109.501V44.7947H106.271V44.8699Z" fill="white"/>
<path d="M123.546 44.8699V35.1597L115.81 44.8699H113.932V29.439H117.162V39.1492L124.898 29.439H126.775V44.7947H123.546V44.8699Z" fill="white"/>
<path d="M139.768 44.8696V41.106H137.965C136.388 41.1812 135.938 41.4823 134.661 43.3642L133.609 44.8696H130.004L131.431 42.8373C132.483 41.3318 133.159 40.5791 133.91 40.1274C131.657 39.2994 130.38 37.5681 130.38 35.3099C130.38 32.0732 132.858 29.5139 137.44 29.5139H142.998V44.8696H139.768ZM137.139 32.299C135.036 32.299 133.384 33.2776 133.384 35.2347C133.384 37.267 135.036 38.1703 137.139 38.1703H139.768V32.2238H137.139V32.299Z" fill="white"/>
<path d="M149.007 44.8699L152.386 39.2997L146.453 29.439H150.133L154.264 36.1383L158.32 29.439H162L152.687 44.7947H149.007V44.8699Z" fill="white"/>
<path d="M65.5631 79.7217V59.8496L56.1749 71.6675L46.7866 59.8496V79.7217H42.5056V51.7954H44.9841L56.1749 65.9468L67.3656 51.7954H69.8441V79.7217H65.5631Z" fill="white"/>
<path d="M90.5733 79.7217V60.0002L75.8526 79.7217H73.3741V51.7954H77.6551V71.517L92.3758 51.7954H94.8543V79.7217H90.5733Z" fill="white"/>
<path d="M157.417 79.7217V60.0002L142.697 79.7217H140.218V51.7954H144.499V71.517L159.22 51.7954H161.698V79.7217H157.417Z" fill="white"/>
<path d="M127.374 52.774C124.07 52.774 121.216 54.5052 119.714 56.914V51.7954H115.433V64.366C115.433 68.6566 112.278 71.818 108.147 71.818C104.092 71.818 100.862 68.7319 100.862 64.366C100.862 60.0754 104.017 56.914 108.147 56.914C110.325 56.914 112.203 57.8173 113.48 59.2474V54.8816C111.903 53.602 109.95 52.8492 107.697 52.8492C101.012 52.8492 96.5811 57.9678 96.5811 64.366C96.5811 70.7642 101.087 75.8828 107.697 75.8828C111.001 75.8828 113.855 74.2268 115.357 71.7428V79.797H119.714V63.8391C120.014 59.8496 123.018 56.914 126.924 56.914C130.979 56.914 134.209 60.0754 134.209 64.366C134.209 68.6566 131.055 71.818 126.924 71.818C124.821 71.818 122.943 70.99 121.591 69.5599V74.001C123.093 75.2053 125.121 75.9581 127.299 75.9581C133.909 75.9581 138.415 70.9148 138.415 64.4413C138.49 57.8925 133.984 52.774 127.374 52.774Z" fill="white"/>
</svg>
