<svg width="21" height="20" viewBox="0 0 21 20" fill="none" xmlns="http://www.w3.org/2000/svg">
<g clip-path="url(#clip0_5480_731)">
<path d="M9.17187 14.0874C7.6214 13.9256 6.22343 13.5438 5.02654 12.6077C4.87803 12.4912 4.7247 12.379 4.58918 12.2489C4.0653 11.7457 4.01252 11.1695 4.42705 10.5757C4.78168 10.0675 5.37698 9.93156 5.99574 10.2233C6.11555 10.2799 6.22971 10.3505 6.33905 10.4263C8.56965 11.959 11.6339 12.0013 13.8729 10.4952C14.0947 10.3251 14.3318 10.1865 14.6067 10.1157C15.141 9.97848 15.6393 10.1747 15.9261 10.6423C16.2537 11.1762 16.2495 11.6974 15.8459 12.1119C15.2267 12.7474 14.482 13.2072 13.6546 13.5281C12.8723 13.8314 12.0154 13.9841 11.1672 14.0855C11.2952 14.2248 11.3555 14.2933 11.4356 14.3737C12.5872 15.5308 13.7439 16.6831 14.8917 17.8437C15.2828 18.2392 15.3645 18.7295 15.1492 19.1895C14.9137 19.6922 14.3867 20.023 13.87 19.9876C13.5426 19.965 13.2872 19.802 13.0604 19.5735C12.1913 18.699 11.3059 17.8406 10.4544 16.9495C10.2066 16.6904 10.0874 16.7394 9.86876 16.9644C8.99445 17.8644 8.1059 18.7507 7.21211 19.6319C6.81077 20.0276 6.33319 20.0988 5.86776 19.8728C5.373 19.633 5.05817 19.1279 5.08247 18.6204C5.09923 18.2771 5.26805 18.0148 5.5037 17.7796C6.64341 16.6416 7.77997 15.5006 8.91695 14.3607C8.99215 14.2849 9.06232 14.2044 9.17187 14.0874Z" fill="white"/>
<path d="M10.1163 10.1233C7.35035 10.1139 5.08225 7.82084 5.09838 5.05045C5.1143 2.24947 7.38386 -0.00773033 10.1771 1.98985e-05C12.976 0.00756066 15.2225 2.29723 15.2085 5.12732C15.1942 7.89206 12.9104 10.1329 10.1163 10.1233ZM12.6301 5.05715C12.6253 3.68159 11.5298 2.5865 10.157 2.58525C8.77262 2.58378 7.66727 3.69877 7.67795 5.08689C7.68822 6.45722 8.79315 7.54455 10.1698 7.53953C11.5422 7.53471 12.6347 6.4325 12.6301 5.05715Z" fill="white"/>
</g>
<defs>
<clipPath id="clip0_5480_731">
<rect width="20" height="20" fill="white" transform="translate(0.15625)"/>
</clipPath>
</defs>
</svg>
