<svg width="20" height="20" viewBox="0 0 20 20" fill="none" xmlns="http://www.w3.org/2000/svg">
<path d="M14.9025 2H1V17H4.86952V12.1199H12.2841L15.6671 17H20L16.2695 12.0975C17.4281 11.9176 18.2622 11.4903 18.772 10.8156C19.2817 10.141 19.5366 9.0615 19.5366 7.6222V6.4978C19.5366 5.64318 19.444 4.96855 19.2817 4.45125C19.1195 3.93403 18.8415 3.48425 18.4476 3.07946C18.0305 2.69715 17.5671 2.42729 17.011 2.24737C16.4549 2.08995 15.7597 2 14.9025 2ZM14.2769 8.8141H4.86952V5.30582H14.2769C14.8098 5.30582 15.1805 5.3958 15.3659 5.55321C15.5512 5.71062 15.6671 6.003 15.6671 6.4303V7.6897C15.6671 8.1395 15.5512 8.4318 15.3659 8.5892C15.1805 8.7466 14.8098 8.8141 14.2769 8.8141Z" fill="white"/>
</svg>
