<svg width="21" height="13" viewBox="0 0 21 13" fill="none" xmlns="http://www.w3.org/2000/svg">
<path d="M20.6216 10.8725C20.5679 10.7824 20.2354 10.0599 18.6352 8.57478C16.9601 7.01967 17.1851 7.27219 19.2028 4.58324C20.4316 2.94562 20.9229 1.94554 20.7692 1.51801C20.6229 1.11048 19.7191 1.21799 19.7191 1.21799L16.7139 1.23549C16.7139 1.23549 16.4913 1.20549 16.3251 1.30424C16.1638 1.40175 16.0601 1.62677 16.0601 1.62677C16.0601 1.62677 15.5838 2.89436 14.9487 3.97194C13.6099 6.24586 13.0736 6.36587 12.8548 6.22461C12.346 5.89583 12.4735 4.90201 12.4735 4.19696C12.4735 1.99304 12.8073 1.07423 11.8222 0.836708C11.4947 0.757952 11.2547 0.705449 10.4184 0.696698C9.34581 0.685447 8.43699 0.700448 7.9232 0.951717C7.58068 1.11923 7.31691 1.49301 7.47817 1.51426C7.67694 1.54051 8.12697 1.63552 8.36574 1.96054C8.67451 2.37932 8.66326 3.32189 8.66326 3.32189C8.66326 3.32189 8.84077 5.91584 8.24948 6.23836C7.8432 6.45963 7.28691 6.00834 6.09307 3.94444C5.48177 2.88811 5.01924 1.71927 5.01924 1.71927C5.01924 1.71927 4.93048 1.50176 4.77172 1.3855C4.57921 1.24424 4.30919 1.19924 4.30919 1.19924L1.45147 1.21674C1.45147 1.21674 1.02269 1.22924 0.86518 1.4155C0.72517 1.58176 0.853929 1.92429 0.853929 1.92429C0.853929 1.92429 3.0916 7.15843 5.62428 9.79737C7.94821 12.2163 10.5859 12.0575 10.5859 12.0575H11.781C11.781 12.0575 12.1423 12.0175 12.326 11.8188C12.496 11.6363 12.4898 11.2937 12.4898 11.2937C12.4898 11.2937 12.466 9.68987 13.2111 9.4536C13.9449 9.22108 14.8875 11.0037 15.8863 11.69C16.6414 12.2088 17.2151 12.095 17.2151 12.095L19.8866 12.0575C19.8866 12.0575 21.2842 11.9713 20.6216 10.8725Z" fill="white"/>
</svg>
