<svg width="20" height="14" viewBox="0 0 20 14" fill="none" xmlns="http://www.w3.org/2000/svg">
<path d="M18.9793 2.31349C18.7632 1.51023 18.1299 0.877029 17.3268 0.660736C15.8595 0.259277 9.9904 0.259277 9.9904 0.259277C9.9904 0.259277 4.12153 0.259277 2.65428 0.645515C1.86658 0.86158 1.21782 1.51035 1.00175 2.31349C0.615631 3.78062 0.615631 6.82327 0.615631 6.82327C0.615631 6.82327 0.615631 9.88124 1.00175 11.333C1.21805 12.1362 1.85114 12.7694 2.6544 12.9857C4.13698 13.3873 9.99063 13.3873 9.99063 13.3873C9.99063 13.3873 15.8595 13.3873 17.3268 13.001C18.13 12.7848 18.7632 12.1516 18.9795 11.3485C19.3655 9.88124 19.3655 6.83871 19.3655 6.83871C19.3655 6.83871 19.381 3.78062 18.9793 2.31349ZM8.12181 9.63416V4.01237L13.0023 6.82327L8.12181 9.63416Z" fill="white"/>
</svg>
