<svg width="26" height="26" viewBox="0 0 26 26" fill="none" xmlns="http://www.w3.org/2000/svg">
<path d="M25.8239 13.536C26.0681 13.2016 26.0574 12.7452 25.7974 12.4215C21.865 7.58701 17.6196 5.13525 13.1725 5.13525C5.63146 5.13525 0.393625 12.1615 0.176045 12.4587C-0.0680688 12.793 -0.0574552 13.2494 0.202579 13.5731C4.12963 18.4129 8.37509 20.8647 12.8222 20.8647C20.3632 20.8647 25.6011 13.8384 25.8239 13.536ZM12.8222 19.0444C9.11805 19.0444 5.50941 17.0066 2.0812 12.9947C3.42382 11.4079 7.69051 6.9555 13.1725 6.9555C16.8766 6.9555 20.4853 8.99332 23.9135 13.0053C22.5709 14.592 18.3042 19.0444 12.8222 19.0444Z" fill="white"/>
<path d="M12.9973 8.37769C10.45 8.37769 8.37506 10.4527 8.37506 12.9999C8.37506 15.5472 10.45 17.6222 12.9973 17.6222C15.5446 17.6222 17.6195 15.5472 17.6195 12.9999C17.6195 10.4527 15.5446 8.37769 12.9973 8.37769ZM12.9973 15.8019C11.453 15.8019 10.1953 14.5442 10.1953 12.9999C10.1953 11.4556 11.453 10.1979 12.9973 10.1979C14.5416 10.1979 15.7993 11.4556 15.7993 12.9999C15.7993 14.5442 14.5416 15.8019 12.9973 15.8019Z" fill="white"/>
</svg>
