<svg width="34" height="34" viewBox="0 0 34 34" fill="none" xmlns="http://www.w3.org/2000/svg">
<path d="M17.0045 19.4949C17.1754 19.5922 17.3604 19.6387 17.5437 19.6387C17.9215 19.6387 18.2886 19.4419 18.489 19.0907C18.7872 18.5691 18.6062 17.9043 18.0847 17.6062C13.9346 15.2324 11.723 12.594 11.1224 9.30197C10.856 7.83515 11.166 5.66231 12.459 4.11294C13.5316 2.82761 15.0815 2.17584 17.0652 2.17584C20.1644 2.17584 22.375 3.89195 22.9791 6.76669C23.5731 9.59548 22.3255 13.2717 18.7919 14.8251C18.2421 15.0679 17.9916 15.7097 18.2338 16.2596C18.4761 16.8094 19.119 17.0575 19.6677 16.8176C24.2626 14.7975 25.8833 10.0074 25.1089 6.31998C24.4666 3.26488 22.0167 0.000610352 17.0658 0.000610352C13.7532 0.000610352 11.8237 1.47925 10.7883 2.71917C8.92544 4.95151 8.65079 7.86988 8.98202 9.6915C9.93314 14.9105 14.0166 17.7865 17.0045 19.4949Z" fill="#8E9092"/>
<path d="M7.53047 20.6518C8.44215 19.8279 9.45755 19.1502 10.1736 18.7141C11.7807 21.4492 14.2747 23.048 17.0186 23.048C19.729 23.048 22.2 21.448 23.8024 18.7106C25.3529 19.6541 27.7143 21.3961 28.3414 23.1729C28.4987 23.6196 28.9183 23.899 29.3674 23.899C29.4871 23.899 29.609 23.8789 29.7298 23.8365C30.2967 23.6367 30.5938 23.015 30.3934 22.4486C29.17 18.9846 24.0676 16.3521 23.8507 16.2418C23.5879 16.1069 23.2802 16.085 23.0003 16.1829C22.721 16.2801 22.4929 16.4875 22.3692 16.7563C21.167 19.3717 19.2168 20.8715 17.0192 20.8715C14.814 20.8715 12.7896 19.3334 11.6045 16.7563C11.4807 16.4875 11.2533 16.2801 10.9733 16.1829C10.6928 16.085 10.3864 16.1074 10.1223 16.2412C10.0327 16.2872 7.90938 17.3769 6.07188 19.037C5.62577 19.4395 5.59098 20.1279 5.99412 20.5734C6.3966 21.0195 7.08496 21.0537 7.53047 20.6518Z" fill="#8E9092"/>
<path d="M32.9115 31.8242H1.08791C0.487347 31.8242 0 32.3116 0 32.9121C0 33.5126 0.487347 33.9994 1.08791 33.9994H32.9115C33.512 33.9994 34 33.5132 34 32.9121C34 32.311 33.5126 31.8242 32.9115 31.8242Z" fill="#8E9092"/>
<path d="M2.75559 24.6209C2.14207 24.5885 1.65121 25.0688 1.62996 25.6699C1.60871 26.2698 2.07846 26.7742 2.67896 26.7949C8.08308 26.9846 11.6591 27.8777 13.7701 28.9619C10.9209 28.6816 6.56618 28.3513 1.86331 28.3513C1.2628 28.3513 0.775391 28.8381 0.775391 29.4392C0.775391 30.0403 1.26221 30.5271 1.86331 30.5271C9.83219 30.5271 16.778 31.493 16.8475 31.503C16.8585 31.5045 16.8695 31.5053 16.8805 31.5065C16.8898 31.5075 16.8991 31.5086 16.9085 31.5094C16.9388 31.5119 16.9691 31.5136 16.9996 31.5136C17.0304 31.5136 17.0609 31.5119 17.0913 31.5094C17.1002 31.5086 17.1092 31.5075 17.1182 31.5065C17.1293 31.5053 17.1405 31.5046 17.1516 31.503C17.2206 31.4936 24.1576 30.5271 32.1341 30.5271C32.7352 30.5271 33.2226 30.0403 33.2226 29.4392C33.2226 28.8381 32.7353 28.3513 32.1341 28.3513C27.4317 28.3513 23.0781 28.6815 20.2294 28.9618C22.3405 27.8778 25.9161 26.9846 31.3196 26.7949C31.9195 26.7742 32.3893 26.2704 32.3686 25.6699C32.3474 25.07 31.8553 24.6079 31.243 24.6209C22.5209 24.9267 18.6898 26.9045 17.0019 28.6135C15.3254 26.9133 11.4959 24.9279 2.75559 24.6209Z" fill="#8E9092"/>
<path d="M4.70869 23.7298C4.91375 24.0669 5.27147 24.2532 5.63922 24.2532C5.83193 24.2532 6.02703 24.2019 6.2038 24.0941C6.71711 23.7823 6.88034 23.1129 6.56803 22.5996L2.20934 15.4345C1.89697 14.9218 1.22867 14.7574 0.714225 15.0703C0.200914 15.382 0.0376905 16.0515 0.349994 16.5648L4.70869 23.7298Z" fill="#8E9092"/>
</svg>
