<svg width="50" height="50" viewBox="0 0 50 50" fill="none" xmlns="http://www.w3.org/2000/svg">
<path d="M50 4.50842V1.56724H13.2353C7.20755 1.53626 3.72735 8.58489 7.35696 13.3319H0V16.2731H2.94118V25.0966H0V28.0378H7.35225C3.72137 32.8115 7.22421 39.8325 13.2353 39.8025H26.4706V48.4326L32.3529 44.5111L38.2353 48.4326V39.8025H50V36.8614H47.0588V28.0378H50V25.0966H42.643C44.609 22.4838 44.6112 18.8888 42.643 16.2731H50V13.3319H47.0588V4.50842H50ZM35.2941 42.9371L32.3529 40.9764L29.4118 42.9371V33.9202H35.2941V42.9371ZM44.1176 36.8614H38.2353V30.979H26.4706V36.8614H13.2353C7.38715 36.6261 7.38157 28.269 13.2353 28.0378H44.1176V36.8614ZM41.1765 20.6849C41.1765 23.1176 39.1974 25.0966 36.7647 25.0966C33.8647 25.0966 9.82539 25.0966 5.88235 25.0966V16.2731H36.7647C39.1974 16.2731 41.1765 18.2521 41.1765 20.6849ZM44.1176 13.3319C40.1825 13.3319 16.1305 13.3319 13.2353 13.3319C7.38108 13.089 7.38559 4.7492 13.2353 4.50842H44.1176V13.3319Z" fill="white"/>
</svg>
