<svg width="50" height="50" viewBox="0 0 50 50" fill="none" xmlns="http://www.w3.org/2000/svg">
<path d="M15.625 9.375C16.4875 9.375 17.1875 8.675 17.1875 7.8125C17.1875 6.95156 17.8891 6.25 18.75 6.25H26.5625C27.425 6.25 28.125 5.55 28.125 4.6875C28.125 3.825 27.425 3.125 26.5625 3.125H18.75C16.1656 3.125 14.0625 5.22812 14.0625 7.8125C14.0625 8.675 14.7625 9.375 15.625 9.375Z" fill="white"/>
<path d="M45.3125 20.3125H39.0625V12.5C39.0625 11.6375 38.3625 10.9375 37.5 10.9375H31.25C30.3875 10.9375 29.6875 11.6375 29.6875 12.5V20.3125H20.3125V12.5C20.3125 11.6375 19.6125 10.9375 18.75 10.9375H12.5C11.6375 10.9375 10.9375 11.6375 10.9375 12.5V20.3125H4.6875C3.825 20.3125 3.125 21.0125 3.125 21.875V45.3125C3.125 46.175 3.825 46.875 4.6875 46.875H45.3125C46.175 46.875 46.875 46.175 46.875 45.3125V21.875C46.875 21.0125 46.175 20.3125 45.3125 20.3125ZM32.8125 14.0625H35.9375V20.3125H32.8125V14.0625ZM14.0625 14.0625H17.1875V20.3125H14.0625V14.0625ZM10.9375 43.75V39.0625H14.0625V43.75H10.9375ZM23.4375 43.75V39.0625H26.5625V43.75H23.4375ZM35.9375 43.75V39.0625H39.0625V43.75H35.9375ZM43.75 43.75H42.1875V37.5C42.1875 36.6375 41.4875 35.9375 40.625 35.9375H34.375C33.5125 35.9375 32.8125 36.6375 32.8125 37.5V43.75H29.6875V37.5C29.6875 36.6375 28.9875 35.9375 28.125 35.9375H21.875C21.0125 35.9375 20.3125 36.6375 20.3125 37.5V43.75H17.1875V37.5C17.1875 36.6375 16.4875 35.9375 15.625 35.9375H9.375C8.5125 35.9375 7.8125 36.6375 7.8125 37.5V43.75H6.25V23.4375H43.75V43.75Z" fill="white"/>
<path d="M34.375 9.375C35.2375 9.375 35.9375 8.675 35.9375 7.8125C35.9375 6.95156 36.6391 6.25 37.5 6.25H45.3125C46.175 6.25 46.875 5.55 46.875 4.6875C46.875 3.825 46.175 3.125 45.3125 3.125H37.5C34.9156 3.125 32.8125 5.22812 32.8125 7.8125C32.8125 8.675 33.5125 9.375 34.375 9.375Z" fill="white"/>
<path d="M9.375 34.375H15.625C16.4875 34.375 17.1875 33.675 17.1875 32.8125V26.5625C17.1875 25.7 16.4875 25 15.625 25H9.375C8.5125 25 7.8125 25.7 7.8125 26.5625V32.8125C7.8125 33.675 8.5125 34.375 9.375 34.375ZM10.9375 28.125H14.0625V31.25H10.9375V28.125Z" fill="white"/>
<path d="M21.875 34.375H28.125C28.9875 34.375 29.6875 33.675 29.6875 32.8125V26.5625C29.6875 25.7 28.9875 25 28.125 25H21.875C21.0125 25 20.3125 25.7 20.3125 26.5625V32.8125C20.3125 33.675 21.0125 34.375 21.875 34.375ZM23.4375 28.125H26.5625V31.25H23.4375V28.125Z" fill="white"/>
<path d="M34.375 34.375H40.625C41.4875 34.375 42.1875 33.675 42.1875 32.8125V26.5625C42.1875 25.7 41.4875 25 40.625 25H34.375C33.5125 25 32.8125 25.7 32.8125 26.5625V32.8125C32.8125 33.675 33.5125 34.375 34.375 34.375ZM35.9375 28.125H39.0625V31.25H35.9375V28.125Z" fill="white"/>
</svg>
