<svg width="50" height="50" viewBox="0 0 50 50" fill="none" xmlns="http://www.w3.org/2000/svg">
<g clip-path="url(#clip0_5344_537)">
<path d="M36.8172 3.65524C36.5426 3.3783 36.168 3.22266 35.7777 3.22266C35.3875 3.22266 35.0133 3.37868 34.7382 3.65563L30.4108 8.01659C30.1243 8.30499 29.744 8.46406 29.3404 8.46406C29.033 8.46406 21.6778 8.46406 20.3888 8.46406C19.9849 8.46406 19.6049 8.30499 19.3158 8.0143L15.0643 3.75099C14.7896 3.47519 14.4162 3.32031 14.0271 3.32031C14.0267 3.32031 14.0259 3.32031 14.0255 3.32031C13.6357 3.32069 13.2622 3.47672 12.9875 3.75328L0.327683 16.5066C-0.240327 17.0788 -0.239182 18.0023 0.330353 18.5734L3.96119 22.2111C4.64898 22.9042 5.02778 23.8262 5.02778 24.8078C5.02778 26.0777 5.38407 27.2923 6.04631 28.3387C4.60511 30.0911 4.69819 32.7012 6.32707 34.3419C7.11557 35.1365 8.14821 35.5958 9.25562 35.6499C9.30635 36.7211 9.73665 37.777 10.5469 38.593C11.3354 39.3876 12.368 39.8469 13.4758 39.901C13.5262 40.9722 13.9569 42.0281 14.7667 42.8441C16.042 44.1289 17.8719 44.4527 19.4172 43.8977C19.6301 44.5126 19.9795 45.0894 20.4663 45.5796C22.2054 47.3321 25.0256 47.3325 26.7651 45.5796L27.3835 44.957C27.7699 44.5676 28.0694 44.1231 28.283 43.649C30.0129 45.1775 32.6794 45.1436 34.3651 43.4453C35.1754 42.6293 35.6057 41.5734 35.656 40.5022C36.7634 40.4484 37.7965 39.9888 38.585 39.1942C39.3952 38.3782 39.8255 37.3223 39.8762 36.2511C40.9833 36.1973 42.0163 35.7377 42.8048 34.9434C44.4245 33.3119 44.5264 30.7213 43.1104 28.9689C44.1422 27.5151 44.7011 25.7798 44.7011 23.9575C44.7011 23.5306 44.8724 23.1133 45.1711 22.8123L49.4771 18.4727C50.044 17.9016 50.044 16.98 49.4771 16.4089L36.8172 3.65524ZM8.40646 30.0908L10.5164 27.9652C11.1088 27.3682 12.064 27.3678 12.6568 27.9652C13.2557 28.5683 13.2557 29.5494 12.6568 30.1522L10.5469 32.2781C9.95409 32.8751 8.99927 32.8751 8.40646 32.2781C7.80794 31.675 7.80794 30.6939 8.40646 30.0908ZM12.6263 34.3419L16.8461 30.0908C17.4389 29.4938 18.3941 29.4934 18.9869 30.0908C19.5855 30.6939 19.5855 31.675 18.9869 32.2781C17.4828 33.7933 17.4027 33.8738 14.7667 36.5292C14.1739 37.1258 13.2191 37.1262 12.6263 36.5288C12.0278 35.9261 12.0278 34.945 12.6263 34.3419ZM16.8461 40.7799C16.2476 40.1772 16.2476 39.1961 16.8461 38.593L18.956 36.4674C19.5488 35.8704 20.504 35.8704 21.0968 36.4674C21.6496 37.0244 21.6908 37.9029 21.2223 38.5094C21.0934 38.6284 21.2853 38.4369 18.9869 40.7799C18.3941 41.3773 17.4393 41.3777 16.8461 40.7799ZM25.3045 42.8929L24.6861 43.5155C24.0933 44.1128 23.1385 44.1128 22.5457 43.5155C22.0002 42.9661 21.9532 42.1036 22.4019 41.4986C23.206 40.6857 23.1667 40.7338 23.3067 40.5804C23.9048 40.1101 24.759 40.1566 25.3045 40.7059C25.903 41.309 25.9026 42.2902 25.3045 42.8929ZM40.7258 32.8793C40.133 33.4763 39.1778 33.4763 38.585 32.8793L35.8571 30.1312C35.2872 29.5571 34.3594 29.5536 33.7853 30.1236C33.2112 30.6935 33.2078 31.6208 33.7777 32.1949L36.506 34.9431C37.1045 35.5462 37.1045 36.5273 36.506 37.13C35.9132 37.7274 34.958 37.7274 34.3651 37.13L31.6373 34.3819C31.067 33.8078 30.1396 33.8044 29.5655 34.3743C28.9914 34.9442 28.9879 35.8719 29.5579 36.446L32.2857 39.1942C32.8847 39.7973 32.8847 40.7784 32.2857 41.3811C31.6933 41.9785 30.7381 41.9785 30.1449 41.3811C27.2732 38.5117 27.4109 38.5747 27.1218 38.3999C26.3756 37.7575 25.4513 37.3852 24.4664 37.3349C24.4133 36.2679 23.983 35.2166 23.1762 34.4033C22.7623 33.9867 22.2809 33.6625 21.7572 33.4404C22.7505 31.7303 22.5205 29.4918 21.0659 28.027C19.5752 26.5252 17.3451 26.3432 15.6823 27.3171C15.4667 26.8025 15.152 26.3199 14.7362 25.9014C12.9967 24.149 10.1769 24.149 8.43698 25.9014L8.20352 26.1368C8.04254 25.7187 7.95747 25.2697 7.95747 24.8078C7.95747 23.0477 7.27655 21.3929 6.03753 20.1443L3.434 17.5358L14.0293 6.86188L17.239 10.0803C17.9562 10.8029 18.8759 11.2473 19.8697 11.3625L13.3236 19.2173C12.806 19.8391 12.8899 20.7627 13.5113 21.2803C15.0139 22.5327 16.9144 23.1251 18.8626 22.9481C20.8104 22.7711 22.5731 21.846 23.827 20.3411C24.3515 19.7117 25.2339 19.5221 25.9736 19.8792C27.483 20.6085 29.1421 20.8748 30.774 20.6665L40.7258 30.692C41.3243 31.2951 41.3243 32.2762 40.7258 32.8793ZM43.092 20.7482C42.2402 21.6061 41.7714 22.7459 41.7714 23.9575C41.7714 24.9798 41.5063 25.9602 41.0111 26.8208L33.8864 19.6438C35.3429 18.8336 36.5372 17.6155 37.3296 16.1057C37.7053 15.3893 37.4291 14.5039 36.7127 14.1281C35.9963 13.752 35.1109 14.0282 34.7352 14.7446C33.9402 16.2598 32.5757 17.2711 31.0471 17.6457C30.98 17.656 30.9132 17.6705 30.848 17.6903C29.6734 17.9333 28.4142 17.8047 27.2481 17.2413C25.2953 16.2979 22.9634 16.8015 21.5748 18.4677C20.8233 19.3692 19.7659 19.9242 18.5974 20.0306C17.9333 20.0909 17.2787 20.002 16.6714 19.7766L23.4528 11.6379C23.9842 11.4758 24.535 11.3812 25.0905 11.3812H29.3404C30.5306 11.3812 31.6491 10.9272 32.4902 10.0803L35.7781 6.7669L46.3738 17.4408L43.092 20.7482Z" fill="white"/>
</g>
<defs>
<clipPath id="clip0_5344_537">
<rect width="50" height="50" fill="white"/>
</clipPath>
</defs>
</svg>
