<svg width="20" height="20" viewBox="0 0 20 20" fill="none" xmlns="http://www.w3.org/2000/svg">
<path d="M19.8729 9.61096C19.6942 9.36655 15.4371 3.62634 9.9999 3.62634C4.56274 3.62634 0.305391 9.36655 0.126914 9.61073C-0.0423048 9.84261 -0.0423048 10.1571 0.126914 10.389C0.305391 10.6334 4.56274 16.3736 9.9999 16.3736C15.4371 16.3736 19.6942 10.6333 19.8729 10.3892C20.0423 10.1573 20.0423 9.84261 19.8729 9.61096ZM9.9999 15.0549C5.99486 15.0549 2.52606 11.245 1.49922 9.99952C2.52473 8.75292 5.98626 4.94502 9.9999 4.94502C14.0048 4.94502 17.4733 8.75424 18.5006 10.0004C17.4751 11.247 14.0135 15.0549 9.9999 15.0549Z" fill="#8E9092"/>
<path d="M9.9999 6.04407C7.81858 6.04407 6.04385 7.8188 6.04385 10.0001C6.04385 12.1815 7.81858 13.9562 9.9999 13.9562C12.1812 13.9562 13.9559 12.1815 13.9559 10.0001C13.9559 7.8188 12.1812 6.04407 9.9999 6.04407ZM9.9999 12.6375C8.54561 12.6375 7.36256 11.4544 7.36256 10.0001C7.36256 8.54587 8.54565 7.36278 9.9999 7.36278C11.4542 7.36278 12.6372 8.54587 12.6372 10.0001C12.6372 11.4544 11.4542 12.6375 9.9999 12.6375Z" fill="#8E9092"/>
</svg>
