<?xml version="1.0" encoding="UTF-8"?>
<svg xmlns="http://www.w3.org/2000/svg" xmlns:xlink="http://www.w3.org/1999/xlink" width="79px" height="106px" viewBox="0 0 79 106" version="1.1">
<defs>
<linearGradient id="linear0" gradientUnits="userSpaceOnUse" x1="29.241" y1="102.824" x2="29.241" y2="36.422" gradientTransform="matrix(0.647495,0,0,0.647075,0.00928093,0)">
<stop offset="0" style="stop-color:rgb(100%,100%,100%);stop-opacity:1;"/>
<stop offset="1" style="stop-color:rgb(30.196078%,30.196078%,30.196078%);stop-opacity:1;"/>
</linearGradient>
<linearGradient id="linear1" gradientUnits="userSpaceOnUse" x1="37.932" y1="2.086" x2="90.095" y2="54.249" gradientTransform="matrix(0.647495,0,0,0.647075,0.00928093,0)">
<stop offset="0" style="stop-color:rgb(100%,100%,100%);stop-opacity:1;"/>
<stop offset="1" style="stop-color:rgb(29.411765%,72.156863%,93.72549%);stop-opacity:1;"/>
</linearGradient>
<linearGradient id="linear2" gradientUnits="userSpaceOnUse" x1="113.646" y1="47.442" x2="61.83" y2="99.258" gradientTransform="matrix(0.647495,0,0,0.647075,0.00928093,0)">
<stop offset="0" style="stop-color:rgb(100%,100%,100%);stop-opacity:1;"/>
<stop offset="1" style="stop-color:rgb(49.803922%,25.490196%,58.039216%);stop-opacity:1;"/>
</linearGradient>
</defs>
<g id="surface1">
<path style=" stroke:none;fill-rule:nonzero;fill:rgb(30.196078%,30.196078%,30.196078%);fill-opacity:1;" d="M 11.921875 91.660156 L 11.921875 105.503906 L 5.761719 105.503906 L 5.761719 91.660156 L 0.234375 91.660156 L 0.234375 86.730469 L 17.449219 86.730469 L 17.449219 91.660156 Z M 29.292969 105.503906 L 20.140625 105.503906 L 20.140625 86.730469 L 29.113281 86.730469 C 33.335938 86.730469 36.703125 87.722656 36.703125 91.453125 C 36.703125 93.378906 35.453125 94.789062 34.25 95.542969 C 36.285156 96.066406 37.378906 97.8125 37.378906 99.84375 C 37.378906 104.042969 34.171875 105.503906 29.292969 105.503906 Z M 28.457031 91.113281 L 26.292969 91.113281 L 26.292969 94.242188 L 28.851562 94.242188 C 30.078125 94.242188 30.964844 93.695312 30.964844 92.597656 C 30.964844 91.140625 29.765625 91.113281 28.457031 91.113281 Z M 28.25 97.65625 L 26.292969 97.65625 L 26.292969 101.121094 L 28.980469 101.121094 C 30.492188 101.121094 31.644531 100.808594 31.644531 99.402344 C 31.644531 97.761719 30.207031 97.65625 28.25 97.65625 Z M 48.105469 106 C 43.144531 106 39.675781 103.078125 39.128906 98.230469 L 45.054688 98.230469 C 45.285156 100.027344 46.226562 101.410156 48.207031 101.410156 C 50.765625 101.410156 51.652344 99.714844 51.859375 97.65625 L 47.839844 97.65625 L 47.839844 94.238281 L 51.730469 94.238281 C 51.3125 91.996094 50.136719 90.824219 48.441406 90.824219 C 46.511719 90.824219 45.289062 91.945312 45.105469 93.902344 L 39.261719 93.902344 C 39.753906 89.078125 42.964844 86.238281 48.703125 86.238281 C 53.949219 86.238281 58.070312 90.015625 58.070312 96.09375 C 58.070312 102.191406 54.3125 106 48.105469 106 Z M 72.835938 105.503906 L 72.835938 91.894531 L 68.425781 91.894531 L 68.425781 96.457031 C 68.425781 104.019531 66.050781 105.894531 62.527344 105.894531 C 61.25 105.894531 60.417969 105.789062 59.191406 105.503906 L 59.191406 101.125 C 59.554688 101.253906 59.894531 101.308594 60.601562 101.308594 C 61.824219 101.308594 62.527344 100.808594 62.527344 96.40625 L 62.527344 86.734375 L 78.992188 86.734375 L 78.992188 105.503906 Z M 3.386719 81.710938 L 1.542969 79.074219 L 0.71875 79.863281 L 0.71875 81.710938 L 0.0078125 81.710938 L 0.0078125 76.453125 L 0.71875 76.453125 L 0.71875 79.003906 L 3.269531 76.453125 L 4.25 76.453125 L 2.058594 78.574219 L 4.3125 81.710938 Z M 10.265625 81.851562 C 8.300781 81.851562 7.699219 80.21875 7.699219 79.078125 C 7.699219 77.945312 8.300781 76.3125 10.265625 76.3125 C 12.230469 76.3125 12.832031 77.945312 12.832031 79.078125 C 12.832031 80.21875 12.230469 81.851562 10.265625 81.851562 Z M 10.265625 76.941406 C 9.121094 76.941406 8.433594 77.84375 8.433594 79.078125 C 8.433594 80.320312 9.121094 81.21875 10.265625 81.21875 C 11.410156 81.21875 12.097656 80.320312 12.097656 79.078125 C 12.097656 77.84375 11.410156 76.941406 10.265625 76.941406 Z M 19.1875 79.492188 L 17.535156 79.492188 L 17.535156 81.710938 L 16.824219 81.710938 L 16.824219 76.453125 L 19.1875 76.453125 C 20.164062 76.453125 20.75 77.082031 20.75 77.929688 C 20.75 78.664062 20.332031 79.492188 19.1875 79.492188 Z M 18.980469 77.058594 L 17.535156 77.058594 L 17.535156 78.882812 L 18.949219 78.882812 C 19.585938 78.882812 20.019531 78.648438 20.019531 77.9375 C 20.019531 77.273438 19.5625 77.058594 18.980469 77.058594 Z M 28.183594 81.710938 L 28.183594 77.082031 L 25.433594 77.082031 L 25.433594 81.710938 L 24.722656 81.710938 L 24.722656 76.453125 L 28.890625 76.453125 L 28.890625 81.710938 Z M 35.375 81.851562 C 33.414062 81.851562 32.8125 80.21875 32.8125 79.078125 C 32.8125 77.945312 33.414062 76.3125 35.375 76.3125 C 37.339844 76.3125 37.941406 77.945312 37.941406 79.078125 C 37.941406 80.21875 37.339844 81.851562 35.375 81.851562 Z M 35.375 76.941406 C 34.234375 76.941406 33.546875 77.84375 33.546875 79.078125 C 33.546875 80.320312 34.234375 81.21875 35.375 81.21875 C 36.519531 81.21875 37.210938 80.320312 37.210938 79.078125 C 37.207031 77.84375 36.519531 76.941406 35.375 76.941406 Z M 44.300781 79.492188 L 42.648438 79.492188 L 42.648438 81.710938 L 41.9375 81.710938 L 41.9375 76.453125 L 44.300781 76.453125 C 45.273438 76.453125 45.859375 77.082031 45.859375 77.929688 C 45.859375 78.664062 45.445312 79.492188 44.300781 79.492188 Z M 44.089844 77.058594 L 42.648438 77.058594 L 42.648438 78.882812 L 44.058594 78.882812 C 44.699219 78.882812 45.128906 78.648438 45.128906 77.9375 C 45.128906 77.273438 44.675781 77.058594 44.089844 77.058594 Z M 53.285156 81.710938 L 52.761719 80.179688 L 50.652344 80.179688 L 50.101562 81.710938 L 49.371094 81.710938 L 51.347656 76.453125 L 52.15625 76.453125 L 54.058594 81.710938 Z M 51.730469 77.238281 L 51.71875 77.238281 L 50.875 79.550781 L 52.507812 79.550781 Z M 62.429688 82.851562 L 62.429688 81.078125 L 61.960938 81.078125 L 61.960938 76.453125 L 61.25 76.453125 L 61.25 81.078125 L 58.5 81.078125 L 58.5 76.453125 L 57.792969 76.453125 L 57.792969 81.710938 L 61.777344 81.710938 L 61.777344 82.851562 Z M 69.703125 81.710938 L 69.703125 77.460938 L 69.691406 77.460938 L 67.015625 81.710938 L 66.195312 81.710938 L 66.195312 76.453125 L 66.90625 76.453125 L 66.90625 80.757812 L 66.933594 80.757812 L 69.601562 76.453125 L 70.414062 76.453125 L 70.414062 81.710938 Z M 77.890625 81.710938 L 77.890625 79.453125 L 76.714844 79.453125 L 75.308594 81.710938 L 74.417969 81.710938 L 75.910156 79.453125 C 75.375 79.359375 74.523438 79.03125 74.523438 77.894531 C 74.523438 76.785156 75.390625 76.453125 76.253906 76.453125 L 78.597656 76.453125 L 78.597656 81.710938 Z M 77.890625 77.058594 L 76.203125 77.058594 C 75.851562 77.058594 75.25 77.128906 75.257812 77.9375 C 75.257812 78.679688 75.871094 78.847656 76.394531 78.847656 L 77.890625 78.847656 Z M 77.890625 77.058594 "/>
<path style=" stroke:none;fill-rule:nonzero;fill:url(#linear0);" d="M 14.308594 66.535156 L 0.152344 43.398438 L 12.445312 23.566406 L 35.226562 23.566406 L 23.578125 43.398438 L 37.730469 66.535156 Z M 14.308594 66.535156 "/>
<path style=" stroke:none;fill-rule:nonzero;fill:url(#linear1);" d="M 25.921875 0 L 52.652344 0.0820312 L 63.632812 20.664062 L 53.191406 40.253906 L 41.207031 20.273438 L 14.308594 20.429688 Z M 25.921875 0 "/>
<path style=" stroke:none;fill-rule:nonzero;fill:url(#linear2);" d="M 78.238281 42.875 L 65.621094 66.433594 L 42.28125 66.460938 L 29.925781 46.574219 L 53.265625 46.542969 L 65.878906 22.988281 Z M 78.238281 42.875 "/>
<path style=" stroke:none;fill-rule:nonzero;fill:rgb(0%,0%,0%);fill-opacity:1;" d="M 48.984375 42.726562 L 29.582031 42.726562 L 39.28125 25.9375 Z M 48.984375 42.726562 "/>
</g>
</svg>
