<svg width="32" height="34" viewBox="0 0 32 34" fill="none" xmlns="http://www.w3.org/2000/svg">
<path d="M22.4055 14.6094C22.4055 13.8759 21.8109 13.2812 21.0774 13.2812H7.3977C6.66418 13.2812 6.06958 13.8759 6.06958 14.6094C6.06958 15.3429 6.66418 15.9375 7.3977 15.9375H21.0774C21.8109 15.9375 22.4055 15.3429 22.4055 14.6094Z" fill="#8E9092"/>
<path d="M7.3977 18.5938C6.66418 18.5938 6.06958 19.1884 6.06958 19.9219C6.06958 20.6554 6.66418 21.25 7.3977 21.25H15.7059C16.4394 21.25 17.034 20.6554 17.034 19.9219C17.034 19.1884 16.4394 18.5938 15.7059 18.5938H7.3977Z" fill="#8E9092"/>
<path d="M10.5188 31.3438H6.0769C4.61225 31.3438 3.42065 30.1522 3.42065 28.6875V5.3125C3.42065 3.84784 4.61225 2.65625 6.0769 2.65625H22.4055C23.8701 2.65625 25.0617 3.84784 25.0617 5.3125V13.4805C25.0617 14.214 25.6563 14.8086 26.3898 14.8086C27.1234 14.8086 27.718 14.214 27.718 13.4805V5.3125C27.718 2.38319 25.3348 0 22.4055 0H6.0769C3.14759 0 0.764404 2.38319 0.764404 5.3125V28.6875C0.764404 31.6168 3.14759 34 6.0769 34H10.5188C11.2523 34 11.8469 33.4054 11.8469 32.6719C11.8469 31.9384 11.2523 31.3438 10.5188 31.3438Z" fill="#8E9092"/>
<path d="M30.0703 19.2294C28.5168 17.6759 25.9892 17.6758 24.4366 19.2283L17.145 26.5038C16.9902 26.6583 16.876 26.8486 16.8123 27.0579L15.2244 32.2858C15.0836 32.7493 15.2062 33.2526 15.5445 33.5993C15.7979 33.859 16.1422 34 16.4952 34C16.6134 34 16.7327 33.9842 16.8497 33.9517L22.2104 32.4668C22.431 32.4057 22.632 32.2886 22.7941 32.1269L30.0704 24.8642C31.6239 23.3107 31.6239 20.783 30.0703 19.2294ZM21.1647 30.0002L18.4678 30.7473L19.2571 28.1489L24.1771 23.2398L26.0557 25.1184L21.1647 30.0002ZM28.1931 22.9852L27.9358 23.242L26.0575 21.3637L26.3139 21.1077C26.8318 20.5899 27.6743 20.5899 28.1922 21.1077C28.71 21.6256 28.71 22.4681 28.1931 22.9852Z" fill="#8E9092"/>
<path d="M21.0774 7.96875H7.3977C6.66418 7.96875 6.06958 8.56335 6.06958 9.29688C6.06958 10.0304 6.66418 10.625 7.3977 10.625H21.0774C21.8109 10.625 22.4055 10.0304 22.4055 9.29688C22.4055 8.56335 21.8109 7.96875 21.0774 7.96875Z" fill="#8E9092"/>
</svg>
