<svg width="24" height="34" viewBox="0 0 24 34" fill="none" xmlns="http://www.w3.org/2000/svg">
<path d="M23.9531 0.996092C23.9531 0.445983 23.5071 0 22.957 0H1.04297C0.492859 0 0.046875 0.445983 0.046875 0.996092C0.046875 1.5462 0.492859 1.99218 1.04297 1.99152H2.91097C2.34526 2.93562 2.03906 3.98516 2.03906 5.04687C2.03906 7.00186 3.00281 9.06643 5.07216 11.5441C6.59 13.3616 8.55808 15.2188 10.528 17.0332C7.1012 20.1895 2.03906 24.7542 2.03906 29.0195C2.03906 30.0672 2.33516 31.0846 2.89484 32.0078H1.04297C0.492859 32.0078 0.046875 32.4537 0.046875 33.0038C0.046875 33.554 0.492859 33.9999 1.04297 33.9999C3.62218 33.9999 20.3796 34.0001 22.957 33.9999C23.5071 33.9999 23.9531 33.554 23.9531 33.0038C23.9531 32.4537 23.5071 32.0078 22.957 32.0078H21.1051C21.6648 31.0846 21.9609 30.0672 21.9609 29.0195C21.9609 24.7355 16.9129 20.2025 13.472 17.0332C15.4419 15.2188 17.41 13.3616 18.9279 11.5441C20.9971 9.06643 21.9609 7.00186 21.9609 5.04687C21.9609 3.98516 21.6547 2.93562 21.089 1.99218H22.957C23.5072 1.99218 23.9531 1.5462 23.9531 0.996092ZM6.43734 32.0078C7.54712 29.6762 10.7389 27.957 12 27.957C13.261 27.957 16.4528 29.6762 17.5626 32.0078H6.43734ZM19.9687 29.0195C19.9687 29.7363 19.7458 30.442 19.3271 31.0889C18.1491 28.6865 15.3024 26.6415 12.9961 26.0945V24.9687C12.9961 24.4186 12.5501 23.9726 12 23.9726C11.4499 23.9726 11.0039 24.4186 11.0039 24.9687V26.0945C8.73526 26.6326 5.86624 28.6552 4.67286 31.0889C4.25417 30.442 4.03124 29.7363 4.03124 29.0195C4.03124 26.1362 7.34743 22.7136 11.0039 19.3073V20.9843C11.0039 21.5344 11.4499 21.9804 12 21.9804C12.5501 21.9804 12.9961 21.5344 12.9961 20.9843V19.3073C16.6525 22.7136 19.9687 26.1362 19.9687 29.0195ZM12 15.6805C9.24798 13.1481 6.53615 10.579 5.09454 8.20262C5.75129 8.09252 6.40221 8.03514 7.01952 8.03514C9.50855 8.03514 11.5748 8.93627 11.5937 8.94464C11.6927 8.9888 14.0511 10.0273 16.9804 10.0273C17.1888 10.0273 17.3991 10.021 17.6108 10.0106C16.1103 11.8565 14.0666 13.7789 12 15.6805ZM19.1224 7.82948C18.3909 7.96548 17.6721 8.03514 16.9804 8.03514C14.4914 8.03514 12.4252 7.13401 12.4063 7.12564C12.3073 7.08148 9.94889 6.04296 7.01952 6.04296C6.11095 6.04296 5.17675 6.14164 4.23239 6.33627C4.1015 5.8962 4.03124 5.46582 4.03124 5.04687C4.03124 3.94964 4.54363 2.85334 5.44596 1.99218H18.5541C19.4563 2.85334 19.9687 3.94964 19.9687 5.04687C19.9687 5.9292 19.6581 6.86208 19.1224 7.82948Z" fill="#8E9092"/>
</svg>
