<svg width="50" height="50" viewBox="0 0 50 50" fill="none" xmlns="http://www.w3.org/2000/svg">
<g clip-path="url(#clip0_5344_548)">
<path d="M39.1211 40.7942H35.1346C38.4483 38.2283 40.5859 34.2129 40.5859 29.707C40.5859 21.978 34.298 15.69 26.569 15.69H24.8958V7.74082C24.8958 6.93184 24.2399 6.27598 23.431 6.27598H23.3269V1.46484C23.3269 0.655859 22.671 0 21.862 0H15.5859C14.777 0 14.1211 0.655859 14.1211 1.46484V6.27607H14.0169C13.2079 6.27607 12.5521 6.93193 12.5521 7.74092V23.4311C12.5521 24.24 13.2079 24.8959 14.0169 24.8959H14.1211V29.707C14.1211 30.516 14.777 31.1719 15.5859 31.1719H21.862C22.671 31.1719 23.3269 30.516 23.3269 29.707V24.8958H23.431H26.569C29.222 24.8958 31.3803 27.0541 31.3803 29.707C31.3803 32.36 29.222 34.5183 26.569 34.5183H10.8789C10.0699 34.5183 9.41406 35.1741 9.41406 35.9831C9.41406 36.7921 10.0699 37.4479 10.8789 37.4479H21.9661V40.7943H10.8789C10.0699 40.7943 9.41406 41.4502 9.41406 42.2592V48.5352C9.41406 49.3441 10.0699 50 10.8789 50H39.1211C39.9301 50 40.5859 49.3441 40.5859 48.5352V42.2591C40.5859 41.4501 39.9301 40.7942 39.1211 40.7942ZM17.0508 2.92969H20.3972V6.27607H17.0508V2.92969ZM20.3972 28.2422H17.0508V24.8958H20.3972V28.2422ZM21.9661 21.9661H15.4817V9.20576H21.9661V21.9661ZM24.8958 37.4479H26.569C30.8374 37.4479 34.31 33.9754 34.31 29.707C34.31 25.4387 30.8374 21.9661 26.569 21.9661H24.8958V18.6197H26.569C32.6826 18.6197 37.6563 23.5935 37.6563 29.707C37.6563 35.8206 32.6825 40.7942 26.569 40.7942H24.8958V37.4479ZM37.6563 47.0703H12.3438V43.7239H37.6563V47.0703Z" fill="white"/>
</g>
<defs>
<clipPath id="clip0_5344_548">
<rect width="50" height="50" fill="white"/>
</clipPath>
</defs>
</svg>
