<svg width="42" height="50" viewBox="0 0 42 50" fill="black" xmlns="http://www.w3.org/2000/svg">
<path d="M0.648914 44.7649C1.0413 45.1935 1.6499 45.3496 2.2003 45.1628L8.47138 43.0335L11.0931 49.115C11.3238 49.6501 11.8497 49.9977 12.4323 50H12.4383C13.0186 50 13.5444 49.6574 13.7787 49.1261L18.6657 38.0409C19.4309 38.1349 20.2097 38.1842 21 38.1842C21.7902 38.1842 22.569 38.135 23.3343 38.0409L28.2213 49.1261C28.4554 49.6574 28.9813 50.0001 29.5617 50H29.5678C30.1505 49.9977 30.6763 49.6501 30.9069 49.115L33.5288 43.0335L39.7998 45.1628C40.3497 45.3496 40.9588 45.1936 41.3512 44.7649C41.7437 44.3362 41.8457 43.7161 41.611 43.1844L36.1103 30.7162C38.5754 27.5059 40.0433 23.4919 40.0433 19.1409C40.0433 8.58654 31.5005 0 21.0001 0C10.4996 0 1.95684 8.58654 1.95684 19.1409C1.95684 23.4919 3.42473 27.506 5.8898 30.7162L0.389144 43.1844C0.154571 43.7161 0.256428 44.3362 0.648914 44.7649ZM37.5848 41.3167L33.19 39.8244C32.4667 39.5787 31.6762 39.9302 31.3737 40.6316L29.5467 44.8697L26.2718 37.4412C29.1761 36.6033 31.7966 35.0909 33.9536 33.0859L37.5848 41.3167ZM4.88657 19.1409C4.88657 10.202 12.1151 2.92973 21.0001 2.92973C29.885 2.92973 37.1136 10.202 37.1136 19.1409C37.1136 28.0259 29.885 35.2544 21.0001 35.2544C12.1151 35.2544 4.88657 28.0259 4.88657 19.1409ZM8.04647 33.0859C10.2035 35.0909 12.8241 36.6034 15.7283 37.4412L12.4534 44.8697L10.6264 40.6315C10.3239 39.93 9.53341 39.5787 8.81025 39.8243L4.41537 41.3166L8.04647 33.0859Z" fill="white"/>
<path d="M15.2466 21.0104L14.39 26.0039C14.2958 26.5534 14.5217 27.1089 14.9727 27.4366C15.423 27.7638 16.0211 27.808 16.5154 27.5481L21 25.1905L25.4844 27.5481C25.9781 27.8076 26.5762 27.7644 27.0271 27.4366C27.4782 27.1089 27.7042 26.5535 27.6099 26.0039L26.7535 21.0104L30.3815 17.4739C30.7807 17.0847 30.9244 16.5026 30.7521 15.9723C30.5797 15.442 30.1214 15.0555 29.5696 14.9753L24.5558 14.2468L22.3136 9.70358C22.0668 9.20357 21.5575 8.88696 21 8.88696C20.4425 8.88696 19.9332 9.20347 19.6864 9.70358L17.4442 14.2468L12.4303 14.9753C11.8786 15.0555 11.4201 15.442 11.2478 15.9723C11.0754 16.5026 11.2192 17.0847 11.6184 17.474L15.2466 21.0104ZM18.6276 17.0352C19.1047 16.9659 19.5171 16.6663 19.7305 16.2338L21 13.6616L22.2694 16.2338C22.4828 16.6662 22.8953 16.9659 23.3724 17.0352L26.211 17.4477L24.157 19.4499C23.8117 19.7864 23.6542 20.2713 23.7358 20.7465L24.2206 23.5737L21.6816 22.2389C21.255 22.0146 20.7451 22.0145 20.3183 22.2389L17.7793 23.5737L18.2642 20.7465C18.3456 20.2713 18.1881 19.7864 17.8429 19.4499L15.7888 17.4477L18.6276 17.0352Z" fill="white"/>
</svg>
