<svg width="50" height="50" viewBox="0 0 50 50" fill="none" xmlns="http://www.w3.org/2000/svg">
<g clip-path="url(#clip0_3712_132597)">
<path d="M36.8171 3.65524C36.5425 3.3783 36.1679 3.22266 35.7776 3.22266C35.3874 3.22266 35.0132 3.37868 34.7381 3.65563L30.4107 8.01659C30.1242 8.30499 29.7439 8.46406 29.3403 8.46406C29.0329 8.46406 21.6777 8.46406 20.3887 8.46406C19.9848 8.46406 19.6048 8.30499 19.3157 8.0143L15.0642 3.75099C14.7895 3.47519 14.4161 3.32031 14.027 3.32031C14.0266 3.32031 14.0258 3.32031 14.0254 3.32031C13.6356 3.32069 13.2621 3.47672 12.9874 3.75328L0.327589 16.5066C-0.24042 17.0788 -0.239276 18.0023 0.330259 18.5734L3.9611 22.2111C4.64889 22.9042 5.02769 23.8262 5.02769 24.8078C5.02769 26.0777 5.38398 27.2923 6.04621 28.3387C4.60502 30.0911 4.6981 32.7012 6.32698 34.3419C7.11547 35.1365 8.14812 35.5958 9.25552 35.6499C9.30626 36.7211 9.73656 37.777 10.5468 38.593C11.3353 39.3876 12.3679 39.8469 13.4757 39.901C13.5261 40.9722 13.9568 42.0281 14.7666 42.8441C16.0419 44.1289 17.8718 44.4527 19.4171 43.8977C19.63 44.5126 19.9794 45.0894 20.4662 45.5796C22.2053 47.3321 25.0255 47.3325 26.765 45.5796L27.3834 44.957C27.7698 44.5676 28.0693 44.1231 28.2829 43.649C30.0129 45.1775 32.6793 45.1436 34.3651 43.4453C35.1753 42.6293 35.6056 41.5734 35.6559 40.5022C36.7634 40.4484 37.7964 39.9888 38.5849 39.1942C39.3951 38.3782 39.8254 37.3223 39.8762 36.2511C40.9832 36.1973 42.0162 35.7377 42.8047 34.9434C44.4244 33.3119 44.5263 30.7213 43.1103 28.9689C44.1421 27.5151 44.701 25.7798 44.701 23.9575C44.701 23.5306 44.8723 23.1133 45.171 22.8123L49.477 18.4727C50.0439 17.9016 50.0439 16.98 49.477 16.4089L36.8171 3.65524ZM8.40637 30.0908L10.5163 27.9652C11.1087 27.3682 12.0639 27.3678 12.6567 27.9652C13.2556 28.5683 13.2556 29.5494 12.6567 30.1522L10.5468 32.2781C9.954 32.8751 8.99918 32.8751 8.40637 32.2781C7.80784 31.675 7.80784 30.6939 8.40637 30.0908ZM12.6262 34.3419L16.846 30.0908C17.4388 29.4938 18.394 29.4934 18.9868 30.0908C19.5854 30.6939 19.5854 31.675 18.9868 32.2781C17.4827 33.7933 17.4026 33.8738 14.7666 36.5292C14.1738 37.1258 13.219 37.1262 12.6262 36.5288C12.0277 35.9261 12.0277 34.945 12.6262 34.3419ZM16.846 40.7799C16.2475 40.1772 16.2475 39.1961 16.846 38.593L18.9559 36.4674C19.5487 35.8704 20.5039 35.8704 21.0967 36.4674C21.6495 37.0244 21.6907 37.9029 21.2223 38.5094C21.0933 38.6284 21.2852 38.4369 18.9868 40.7799C18.394 41.3773 17.4392 41.3777 16.846 40.7799ZM25.3044 42.8929L24.686 43.5155C24.0932 44.1128 23.1384 44.1128 22.5456 43.5155C22.0001 42.9661 21.9531 42.1036 22.4018 41.4986C23.2059 40.6857 23.1666 40.7338 23.3066 40.5804C23.9048 40.1101 24.7589 40.1566 25.3044 40.7059C25.9029 41.309 25.9025 42.2902 25.3044 42.8929ZM40.7257 32.8793C40.1329 33.4763 39.1777 33.4763 38.5849 32.8793L35.857 30.1312C35.2871 29.5571 34.3593 29.5536 33.7852 30.1236C33.2111 30.6935 33.2077 31.6208 33.7776 32.1949L36.5059 34.9431C37.1044 35.5462 37.1044 36.5273 36.5059 37.13C35.9131 37.7274 34.9579 37.7274 34.3651 37.13L31.6372 34.3819C31.0669 33.8078 30.1395 33.8044 29.5654 34.3743C28.9913 34.9442 28.9878 35.8719 29.5578 36.446L32.2857 39.1942C32.8846 39.7973 32.8846 40.7784 32.2857 41.3811C31.6932 41.9785 30.738 41.9785 30.1448 41.3811C27.2731 38.5117 27.4108 38.5747 27.1217 38.3999C26.3755 37.7575 25.4512 37.3852 24.4663 37.3349C24.4133 36.2679 23.983 35.2166 23.1761 34.4033C22.7622 33.9867 22.2808 33.6625 21.7571 33.4404C22.7504 31.7303 22.5204 29.4918 21.0658 28.027C19.5751 26.5252 17.345 26.3432 15.6822 27.3171C15.4666 26.8025 15.1519 26.3199 14.7361 25.9014C12.9966 24.149 10.1768 24.149 8.43689 25.9014L8.20343 26.1368C8.04245 25.7187 7.95738 25.2697 7.95738 24.8078C7.95738 23.0477 7.27645 21.3929 6.03744 20.1443L3.4339 17.5358L14.0292 6.86188L17.2389 10.0803C17.9561 10.8029 18.8758 11.2473 19.8696 11.3625L13.3235 19.2173C12.8059 19.8391 12.8898 20.7627 13.5112 21.2803C15.0138 22.5327 16.9143 23.1251 18.8625 22.9481C20.8103 22.7711 22.573 21.846 23.8269 20.3411C24.3515 19.7117 25.2338 19.5221 25.9735 19.8792C27.4829 20.6085 29.142 20.8748 30.7739 20.6665L40.7257 30.692C41.3242 31.2951 41.3242 32.2762 40.7257 32.8793ZM43.092 20.7482C42.2401 21.6061 41.7713 22.7459 41.7713 23.9575C41.7713 24.9798 41.5062 25.9602 41.011 26.8208L33.8863 19.6438C35.3428 18.8336 36.5371 17.6155 37.3295 16.1057C37.7052 15.3893 37.429 14.5039 36.7126 14.1281C35.9962 13.752 35.1108 14.0282 34.7351 14.7446C33.9401 16.2598 32.5756 17.2711 31.047 17.6457C30.9799 17.656 30.9131 17.6705 30.8479 17.6903C29.6733 17.9333 28.4141 17.8047 27.248 17.2413C25.2952 16.2979 22.9633 16.8015 21.5747 18.4677C20.8232 19.3692 19.7658 19.9242 18.5974 20.0306C17.9332 20.0909 17.2786 20.002 16.6713 19.7766L23.4527 11.6379C23.9841 11.4758 24.5349 11.3812 25.0904 11.3812H29.3403C30.5305 11.3812 31.649 10.9272 32.4901 10.0803L35.778 6.7669L46.3737 17.4408L43.092 20.7482Z" fill="white"/>
</g>
<defs>
<clipPath id="clip0_3712_132597">
<rect width="50" height="50" fill="white"/>
</clipPath>
</defs>
</svg>
