<svg width="137" height="60" viewBox="0 0 137 60" fill="none" xmlns="http://www.w3.org/2000/svg">
<g clip-path="url(#clip0_5213_1541)">
<path d="M51.001 19.3164H54.445V27.411H63.7981V19.3164H67.2431V38.7878H63.7981V30.5821H54.445V38.7878H51.001V19.3164Z" fill="#0080C8"/>
<path d="M75.2487 22.4875H69.0313V19.3164H84.938V22.4875H78.7216V38.7878H75.2487V22.4875Z" fill="#0080C8"/>
<path d="M86.7276 19.3164H90.1158V33.5301L100.03 19.3164H103.249V38.7878H99.861V24.6018L89.9751 38.7878H86.7276V19.3164Z" fill="#0080C8"/>
<path d="M35.4453 24.8669C35.979 24.5714 36.492 24.2696 36.9744 23.9607C40.2841 21.849 41.9556 19.681 41.5652 18.0081C41.0576 15.8284 37.0988 14.4735 31.2331 14.4735C29.1089 14.4735 26.8126 14.6544 24.4477 15.0001L25.0328 15.2768C27.551 16.4974 29.8022 18.0072 31.6072 19.6684C32.2798 17.9544 32.8379 16.3183 33.2715 14.8219C33.689 14.8568 34.0929 14.8953 34.4833 14.9463C33.982 16.6971 33.3256 18.6072 32.534 20.5747C33.0065 21.069 33.4392 21.5723 33.8269 22.0819C34.5482 23.0284 35.0891 23.9634 35.4453 24.8669ZM17.1845 14.0401C16.8699 14.5228 16.5597 15.0153 16.2523 15.5168C17.1899 15.2437 18.1555 14.9902 19.1446 14.7565C19.9353 14.9589 20.7377 15.2096 21.5392 15.5025C20.9739 15.6162 20.4059 15.7371 19.8352 15.8669C15.3363 16.9013 11.5072 18.2992 8.50584 19.8135C8.9395 20.9714 9.7329 22.1992 10.8175 23.4072C11.5307 21.7541 12.343 20.0616 13.2527 18.3556L13.4312 18.0234C13.9722 17.838 14.5266 17.6589 15.0964 17.4843C14.8314 17.9526 14.5681 18.429 14.3121 18.9135C12.031 23.1995 10.4416 27.2275 9.47054 30.7452C10.1476 30.7881 10.859 30.8105 11.5992 30.8105C13.5457 30.8105 15.6356 30.6538 17.7886 30.3646C18.5044 30.7049 19.2284 31.0138 19.9515 31.2887C17.0385 31.7884 14.1976 32.0517 11.5992 32.0517C4.92564 32.0517 0.717028 30.4138 0.0480502 27.5562C-0.556013 24.9511 2.09195 21.9466 6.76938 19.3452C6.84602 19.741 6.96142 20.1475 7.11289 20.5559C2.98362 22.9004 0.835136 25.4249 1.26519 27.2759C1.6691 29.0114 4.26117 30.2231 8.2561 30.6449C8.7664 28.7634 9.44079 26.7681 10.2757 24.7057C7.34189 21.6475 6.11483 18.3466 7.35181 15.8275C8.37962 13.7329 10.9077 12.5795 14.4707 12.5795C16.8708 12.5795 19.5656 13.1132 22.2686 14.1028C25.3944 13.5341 28.4526 13.2323 31.2331 13.2323C32.0905 13.2323 32.9064 13.2574 33.68 13.312C35.1676 7.19739 34.6645 2.83799 32.5494 1.72575C32.1626 1.52157 31.7154 1.42038 31.2249 1.42038C27.8611 1.42038 22.7293 5.95351 18.1186 12.6457C17.6705 12.5598 17.2287 12.489 16.7932 12.4344C21.7619 5.02843 27.2931 0.227539 31.2258 0.227539C31.9156 0.227539 32.5494 0.376197 33.1129 0.670823C35.9123 2.14127 36.4163 7.02724 34.889 13.4195C39.4312 13.9254 42.2496 15.4353 42.7833 17.7287C43.308 19.9729 41.4841 22.5574 37.6497 25.0066C37.0735 25.3729 36.4614 25.732 35.8167 26.0795C36.0818 27.3081 35.9736 28.4535 35.4795 29.4583C34.4517 31.5502 31.9237 32.7063 28.3606 32.7063C27.8287 32.7063 27.2805 32.6687 26.7215 32.6186C26.974 32.2272 27.2237 31.8323 27.4725 31.432C27.7719 31.4481 28.0712 31.4634 28.3606 31.4634C31.3773 31.4634 33.5619 30.5338 34.358 28.9111C35.1459 27.3153 34.6014 25.1535 32.8325 22.8278C32.5791 22.4956 32.305 22.166 32.012 21.8392C31.2917 23.529 30.4775 25.2457 29.5822 26.9284L29.2072 27.6225C30.9509 27.0063 32.5845 26.3249 34.0667 25.5914C34.2317 26.0052 34.348 26.4108 34.4157 26.7995C31.2204 28.3568 27.3878 29.6804 23.2783 30.6243L23.0466 30.6771C23.9302 30.9198 24.802 31.1096 25.6522 31.2395C25.8794 30.8902 26.1057 30.5338 26.3293 30.1747C26.9199 29.9992 27.4996 29.8156 28.0703 29.624C22.6382 38.8344 16.0846 45.0556 11.6073 45.0556C10.9176 45.0556 10.2838 44.9078 9.72118 44.6141C7.00831 43.1857 6.44932 38.5532 7.80891 32.4466C8.2011 32.4825 8.60501 32.5111 9.01794 32.5308C7.69531 38.3526 8.23086 42.4792 10.282 43.5583C10.6678 43.7607 11.115 43.8646 11.6064 43.8646C15.0162 43.8646 20.2427 39.2078 24.9012 32.3678C22.594 31.9514 20.1634 31.1535 17.7976 30.0072C15.3273 28.8108 13.1788 27.3762 11.4576 25.8431C11.6217 25.4311 11.7993 25.0102 11.977 24.5893C13.6746 26.178 15.8511 27.6825 18.3467 28.8914C19.1202 29.2666 19.9001 29.6025 20.68 29.8989C21.4481 29.7556 22.2217 29.5944 22.9962 29.4162C24.5505 29.058 26.0634 28.6469 27.514 28.1884C27.8566 27.5938 28.192 26.9884 28.5193 26.3723C29.4975 24.5374 30.3603 22.6899 31.1059 20.9043C29.3397 19.1992 27.0614 17.641 24.4847 16.3899C22.0405 15.206 19.5268 14.4028 17.1845 14.0401ZM14.5366 16.0434C14.9675 15.3028 15.4048 14.5828 15.8502 13.8798C15.3804 13.8404 14.9206 13.8207 14.4716 13.8207C11.4576 13.8207 9.27039 14.7502 8.47428 16.3729C8.14791 17.0365 8.06046 17.7923 8.18307 18.601C10.0584 17.6687 12.1969 16.8019 14.5366 16.0434ZM24.5884 22.7553C24.5884 24.652 23.0394 26.1905 21.129 26.1905C19.2194 26.1905 17.6705 24.6511 17.6705 22.7553C17.6705 20.8577 19.2194 19.3165 21.129 19.3165C23.0403 19.3165 24.5884 20.8577 24.5884 22.7553Z" fill="#0055BB"/>
<path d="M96.4831 53.7172L92.4801 48.6924H91.583V58.5951H93.1229V51.5509L96.4831 55.7375L99.8298 51.5509V58.5951H101.368V48.6924H100.485L96.4831 53.7172Z" fill="#0055BB"/>
<path d="M104.614 55.6828V48.6924H103.073V58.5951H103.972L109.242 51.6091V58.5951H110.78V48.6924H109.882L104.614 55.6828Z" fill="#0055BB"/>
<path d="M134.698 48.6924L129.431 55.6837V48.6924H127.89V58.5951H128.789L134.058 51.6091V58.5951H135.596V48.6924H134.698Z" fill="#0055BB"/>
<path d="M122.854 49.0443C121.674 49.0443 120.646 49.656 120.106 50.5184V48.6924H118.568V53.1342C118.568 54.6637 117.43 55.767 115.975 55.767C114.521 55.767 113.382 54.6637 113.382 53.1342C113.382 51.61 114.522 50.4906 115.975 50.4906C116.742 50.4906 117.414 50.8067 117.888 51.3243V49.7786C117.333 49.3273 116.616 49.0452 115.819 49.0452C113.439 49.0452 111.829 50.8578 111.829 53.1342C111.829 55.4106 113.438 57.2088 115.819 57.2088C117.001 57.2088 118.026 56.6133 118.568 55.7527V58.596L120.127 58.6022V52.9398L120.128 52.9372C120.226 51.5142 121.325 50.4915 122.713 50.4915C124.166 50.4915 125.305 51.6109 125.305 53.1351C125.305 54.6646 124.166 55.7679 122.713 55.7679C121.956 55.7679 121.291 55.4634 120.819 54.9584V56.5291C121.362 56.9509 122.069 57.2097 122.855 57.2097C125.221 57.2097 126.83 55.4115 126.83 53.1351C126.829 50.8578 125.22 49.0443 122.854 49.0443Z" fill="#0055BB"/>
<path d="M62.3692 55.6837V48.6924H60.832V58.596H61.7273L66.998 51.6109V58.596H68.5361V48.6924H67.6399L62.3692 55.6837Z" fill="#0055BB"/>
<path d="M57.5677 52.1912H52.499V48.6924H50.96V58.596H52.499V53.7189H57.5677V58.596H59.1049V48.6924H57.5677V52.1912Z" fill="#0055BB"/>
<path d="M84.6827 52.7062C84.3293 53.411 83.4151 53.2453 83.2555 53.2354C82.445 53.1898 81.7417 52.528 81.3568 51.5357C81.3234 51.4516 81.2937 51.3647 80.53 48.6934H78.9062C79.6681 51.3683 79.8286 51.885 79.8601 51.9728C80.5021 53.8399 82.0312 54.9557 84.121 54.4775L83.5837 56.171C83.2222 57.2187 81.9834 57.5751 80.6229 57.2008L80.173 58.6748C82.3134 59.3196 84.4267 58.605 85.1011 56.2301L87.4912 48.6934H85.9522L84.6827 52.7062Z" fill="#0055BB"/>
<path d="M71.339 52.6192C71.339 51.1541 72.4353 50.0786 73.8309 50.0786H76.2418V55.1445H73.8102C72.4245 55.1338 71.339 54.0816 71.339 52.6192ZM76.2418 48.6923H73.6786H73.6434V48.6959C71.3795 48.7138 69.8486 50.4457 69.8486 52.6192C69.8486 53.9669 70.4392 55.1356 71.4237 55.8359C71.6644 56.0069 71.9277 56.1457 72.2108 56.2559C72.1468 56.5111 72.0557 56.769 71.9205 57.0278C71.8862 57.0959 71.8366 57.1801 70.9278 58.5959H72.7761C73.1097 58.0675 73.2161 57.8947 73.2431 57.849C73.4901 57.4165 73.6614 56.9732 73.7552 56.5308H76.2418V58.5959H77.7799V48.6914H77.0099H76.2418V48.6923Z" fill="#0055BB"/>
</g>
<defs>
<clipPath id="clip0_5213_1541">
<rect width="136" height="60" fill="white"/>
</clipPath>
</defs>
</svg>
