<svg width="34" height="34" viewBox="0 0 34 34" fill="none" xmlns="http://www.w3.org/2000/svg">
<path d="M6.00085 2C3.79512 2 2.00085 3.79442 2.00085 6.00006C2.00085 8.20571 3.79438 10 6.00085 10C8.20733 10 10.0009 8.20571 10.0009 6.00006C10.0009 3.79442 8.20647 2 6.00085 2Z" fill="#0055BB"/>
<path d="M16.9998 2C14.7943 2 13 3.79442 13 6.00006C13 8.20571 14.7943 10 16.9998 10C19.2054 10 21 8.20571 21 6.00006C21 3.79442 19.2062 2 16.9998 2Z" fill="#0055BB"/>
<path d="M28 10C30.2052 10 32 8.20573 32 6.00012C32 3.79451 30.2067 2 28 2C25.7933 2 24 3.79439 24 6C24 8.20561 25.7946 10 28 10Z" fill="#FF5000"/>
<path d="M6.00019 21C8.20549 21 10 19.2062 10 17.0002C10 14.7942 8.20549 13 6.00019 13C3.79488 13 2 14.7943 2 17.0002C2 19.2062 3.79488 21 6.00019 21Z" fill="#00B2DD"/>
<path d="M17 21C19.2052 21 21 19.2062 21 17.0002C21 14.7942 19.2067 13 17 13C14.7936 13 13 14.7942 13 17.0002C13 19.2062 14.7944 21 17 21Z" fill="#0055BB"/>
<path d="M28.0007 21C30.2064 21 32 19.2062 32 17.0002C32 14.7942 30.2064 13 28.0007 13C25.795 13 24 14.7942 24 17.0002C24 19.2062 25.7944 21 28.0007 21Z" fill="#FF5000"/>
<path d="M6.00043 24C3.79499 24 2 25.7939 2 28.0001C2 30.2053 3.79499 32 6.00043 32C8.20587 32 10 30.2062 10 28.0001C10 25.7939 8.20587 24 6.00043 24Z" fill="#00B2DD"/>
<path d="M17.0004 24C14.7949 24 13 25.7939 13 28.0001C13 30.2053 14.7942 32 17.0004 32C19.2055 32 21 30.2062 21 28.0001C21 25.7939 19.2055 24 17.0004 24Z" fill="#0055BB"/>
<path d="M28 24C25.7948 24 24 25.7939 24 28.0001C24 30.2053 25.7948 32 28 32C30.2061 32 32 30.2062 32 28.0001C32 25.7939 30.2052 24 28 24Z" fill="#0055BB"/>
</svg>
